<?xml version="1.0" encoding="UTF-8"?>
<svg id="_图层_1" data-name="图层 1" xmlns="http://www.w3.org/2000/svg" width="300" height="300" viewBox="0 0 300 300">
  <defs>
    <style>
      .cls-1 {
        fill: #e4e4e4;
      }

      .cls-1, .cls-2, .cls-3, .cls-4, .cls-5, .cls-6, .cls-7, .cls-8, .cls-9 {
        stroke-width: 0px;
      }

      .cls-3 {
        isolation: isolate;
        opacity: .2;
      }

      .cls-4 {
        fill: #f0f0f0;
      }

      .cls-5 {
        fill: #658ce0;
      }

      .cls-6 {
        fill: #ccc;
      }

      .cls-7 {
        fill: #3f3d56;
      }

      .cls-8 {
        fill: #cacaca;
      }

      .cls-9 {
        fill: #f2f2f2;
      }
    </style>
  </defs>
  <path class="cls-9" d="m151.94,68.95c-2.67-4.4-5.82-9.08-10.74-10.54-5.72-1.66-11.58,1.63-16.57,4.89-14.87,9.74-29.22,20.31-42.94,31.64v.17c10.67-.73,21.35-1.49,32.06-2.22,7.73-.52,15.7-1.14,22.53-4.78,2.6-1.39,5.09-3.22,8.04-3.36,3.64-.17,6.83,2.39,9.32,5.03,14.76,15.73,19.03,39.79,35.59,53.58-10.43-25.75-22.91-50.63-37.29-74.41Z"/>
  <path class="cls-1" d="m242.71,202.32c-1.63-2.04-2.29-2.53-3.92-4.61-13.1-16.95-25.44-34.48-36.98-52.61-7.83-12.3-15.28-24.85-22.35-37.6-3.36-6.07-6.62-12.2-9.81-18.37-2.46-4.78-4.89-9.6-7.24-14.42-.66-1.39-1.32-2.77-1.98-4.16-1.52-3.26-3.05-6.55-4.64-9.77-1.84-3.67-4.09-7.52-7.49-10.02-1.52-1.18-3.4-1.87-5.3-2.04-2.74-.17-5.3.97-7.69,2.22-17.47,9.11-33.86,20.55-48.66,33.55-14.83,13.03-28.11,27.76-39.51,43.88-.35.49-1.18.03-.83-.49,1.39-1.98,2.81-3.92,4.26-5.82,17.95-23.88,39.96-44.4,65.02-60.65,4.23-2.74,8.53-5.34,12.89-7.8,2.22-1.25,4.44-2.5,6.69-3.64,2.22-1.14,4.54-2.15,7.07-2.18,8.6-.14,13.03,9.6,16.08,16.12.97,2.04,1.94,4.12,2.91,6.17,3.71,7.76,7.56,15.46,11.58,23.08,2.46,4.71,4.99,9.39,7.56,14.04,8.01,14.49,16.53,28.7,25.58,42.59,11.96,18.4,23.81,34.69,37.43,51.92.42.42-.28,1.11-.66.62Z"/>
  <path class="cls-1" d="m85.85,79.63c-.49-.55-1.01-1.11-1.49-1.66-3.95-4.37-8.21-8.7-13.66-11.23-2.6-1.25-5.41-1.91-8.28-1.91s-5.86.8-8.6,1.87c-1.28.52-2.56,1.11-3.81,1.73-1.42.73-2.84,1.49-4.23,2.25-2.63,1.46-5.2,2.95-7.76,4.54-5.06,3.12-9.98,6.52-14.73,10.12-2.46,1.87-4.89,3.81-7.24,5.82-2.18,1.87-4.37,3.78-6.45,5.72-.45.42-1.11-.24-.66-.66.55-.52,1.11-1.04,1.66-1.52,1.59-1.42,3.19-2.84,4.85-4.23,2.98-2.53,6.07-4.96,9.18-7.28,4.89-3.64,9.95-7,15.18-10.12,2.6-1.56,5.27-3.05,7.94-4.51.8-.42,1.63-.87,2.46-1.25,1.87-.94,3.85-1.73,5.86-2.39,2.84-.94,5.86-1.21,8.84-.87,2.88.42,5.65,1.39,8.14,2.81,5.34,2.98,9.46,7.59,13.52,12.1.35.45-.31,1.11-.73.66Z"/>
  <path class="cls-1" d="m195.19,124.99l12.79-4.68,6.34-2.32c2.08-.76,4.12-1.63,6.27-2.15,1.87-.52,3.85-.52,5.68.07,1.63.62,3.15,1.52,4.44,2.74,1.32,1.21,2.53,2.5,3.64,3.88,1.39,1.66,2.74,3.33,4.12,5.03,5.65,6.9,11.26,13.83,16.84,20.79,5.58,6.97,11.13,13.97,16.6,21,5.51,7.04,10.99,14.11,16.43,21.21.66.87,1.32,1.73,2.01,2.6.38.49,1.18,0,.83-.49-5.48-7.17-10.99-14.31-16.53-21.42-5.58-7.14-11.16-14.24-16.81-21.31-5.65-7.07-11.33-14.11-17.05-21.11-1.42-1.73-2.84-3.5-4.3-5.23-1.21-1.46-2.39-2.95-3.71-4.33-2.43-2.5-5.48-4.71-9.08-4.78-2.15-.03-4.19.66-6.17,1.35-2.15.76-4.26,1.56-6.41,2.36l-12.89,4.71-3.22,1.18c-.62.21-.38,1.11.17.9h0Z"/>
  <path class="cls-9" d="m69.01,72.25c-6.52-3.33-14.83-2.7-20.79,1.49,11.4,1.98,22.67,4.61,33.76,7.87-4.61-2.67-8.21-6.9-12.96-9.36Z"/>
  <path class="cls-9" d="m48.18,73.74l-1.25,1.01c.42-.35.87-.69,1.32-1.01h-.07Z"/>
  <path class="cls-9" d="m230.23,125.03c-1.25-1.52-2.63-3.15-4.51-3.74l-1.77.07c13.38,23.64,31.47,44.33,53.13,60.72-15.63-18.99-31.23-38.02-46.86-57.05Z"/>
  <path class="cls-9" d="m120.89,112.41c.8,2.95,2.63,5.55,5.16,7.28.97.66,2.15,1.32,2.46,2.43.17.73.07,1.49-.31,2.11-.38.62-.83,1.21-1.35,1.73l-.03.17c-2.43-1.42-4.75-3.26-6.07-5.75-1.32-2.43-1.49-5.68.14-7.97"/>
  <path class="cls-9" d="m201.64,182.77c.8,2.95,2.63,5.55,5.16,7.28.97.66,2.15,1.32,2.46,2.43.17.73.07,1.49-.31,2.11-.38.62-.83,1.21-1.35,1.73l-.03.17c-2.43-1.42-4.75-3.26-6.07-5.75-1.32-2.5-1.49-5.68.14-7.97"/>
  <path class="cls-9" d="m40.48,177.92c.8,2.95,2.63,5.55,5.16,7.28.97.66,2.15,1.32,2.46,2.43.17.73.07,1.49-.31,2.11-.38.62-.83,1.21-1.35,1.73l-.03.17c-2.43-1.42-4.75-3.26-6.07-5.75s-1.49-5.68.14-7.97"/>
  <circle class="cls-5" cx="225.93" cy="30.97" r="17.68"/>
  <path class="cls-4" d="m257.85,17.42c-8.56-1.14-18.33,3.47-20.55,11.82-1.46-3.88-5.79-5.82-9.63-4.37-2.25.87-3.99,2.74-4.61,5.09l.97.69c18.37,3.99,37.36,3.88,55.69-.24-6-6.24-13.31-11.85-21.87-13Z"/>
  <path class="cls-4" d="m221.12,40.98c-8.56-1.14-18.33,3.47-20.55,11.82-1.46-3.88-5.79-5.82-9.63-4.37-2.25.87-3.99,2.74-4.61,5.09l.97.69c18.37,3.99,37.36,3.88,55.69-.24-6-6.24-13.31-11.85-21.87-13Z"/>
  <path class="cls-6" d="m295.87,45.46h-.1C204.14,16.45,123.38,20.22,71.74,28.51c-7.04,1.14-14.07,2.43-20.93,3.88-1.77.38-3.57.76-5.41,1.18-2.18.49-4.37,1.01-6.41,1.49-.9.21-1.77.42-2.63.62-1.32.31-2.63.66-4.05,1.04-1.59.42-3.19.83-4.78,1.28h-.03c-1.8.49-3.57,1.01-5.3,1.49-.94.28-1.84.52-2.7.8-.1.03-.17.07-.28.07l-.17.07c-.1.03-.21.07-.31.1h0l-.28.1c-.35.1-.66.21-.97.31-8.49,2.63-13.17,4.47-13.24,4.51-.17.07-.38,0-.45-.21s0-.38.21-.45c.03-.03,4.75-1.91,13.27-4.54.31-.1.66-.21.97-.31l.28-.07h.03c.1-.03.21-.07.31-.1l.17-.07c.1-.03.17-.07.28-.07.87-.28,1.77-.52,2.7-.8,1.73-.52,3.5-1.01,5.3-1.49h0c1.59-.45,3.22-.87,4.78-1.28,1.42-.38,2.74-.69,4.05-1.04.87-.21,1.73-.42,2.63-.66,2.08-.52,4.23-1.01,6.45-1.49,1.84-.42,3.67-.8,5.41-1.18,6.86-1.46,13.93-2.74,20.97-3.88,51.67-8.28,132.57-12.1,224.34,16.95.17.07.28.24.24.45-.03.14-.17.24-.31.24Z"/>
  <path class="cls-7" d="m92.09,158.82c-.1-.35-.31-.66-.59-.94-.1-.1-.21-.17-.31-.24-.9-.59-2.25-.73-3.12,0-.07.07-.17.17-.24.24-.24.31-.52.62-.8.94-.45.52-.9,1.01-1.39,1.46-.14.14-.28.28-.42.42-.07.07-.17.17-.24.24-.31.28-.62.59-.94.87-.17.14-.35.28-.52.45-.24.21-.52.42-.76.62-.03,0-.03.03-.07.07h-.03c-.07.07-.14.07-.17.1,0,0,.03,0,.03-.03-.07.03-.14.1-.17.14-.62.45-1.21.87-1.87,1.28-1.56,1.01-3.22,1.87-4.92,2.6-.1.03-.24.1-.35.14-4.47,1.84-9.32,2.56-14.17,2.08-.49-.03-.97-.1-1.49-.17-.55-.07-1.14-.17-1.7-.31-2.15-.42-4.23-1.07-6.24-1.87-2.53-1.14-4.92-2.56-7.17-4.19-.35-.24-.69-.49-1.04-.73.38-.97.8-1.94,1.18-2.95.17-.49.38-.94.55-1.42,1.42-3.67,2.74-7.42,4.02-11.13,1.28-3.78,2.5-7.59,3.64-11.4.1-.38.24-.76.35-1.18.59-2.01,1.18-4.05,1.73-6.07.03-.21.1-.38.17-.59.17-.59.31-1.18.49-1.73.35-1.32-.45-2.88-1.8-3.19-1.39-.35-2.81.45-3.19,1.8-.14.55-.31,1.11-.45,1.7-.73,2.7-1.49,5.41-2.32,8.11-.1.38-.24.76-.35,1.18-1.77,5.86-3.74,11.68-5.86,17.43-.24.69-.52,1.39-.76,2.08-.14.35-.24.69-.38,1.01-.24.66-.52,1.35-.76,2.01-.14.38-.31.8-.45,1.18-.1.24-.21.49-.31.73-1.01-.35-2.01-.59-3.05-.73l-.17-.03c-.8-.1-1.63-.1-2.43.03-2.43.28-4.64,1.63-5.96,3.71-1.66,2.6-1.63,6.31.69,8.53,2.39,2.29,6,2.25,8.8.83,1.49-.8,2.74-1.98,3.64-3.43.35-.52.66-1.07.94-1.63.07.03.14.1.21.14.28.21.55.38.83.59,1.59,1.14,3.29,2.18,5.03,3.08,3.78,1.87,7.83,3.08,11.99,3.64.1,0,.17.03.28.03.45.07.94.1,1.39.14,6.65.49,13.34-.87,19.27-3.95.49-.28,1.01-.52,1.49-.83.76-.45,1.52-.9,2.25-1.42.38-.28.8-.55,1.18-.83,1.7-1.25,3.26-2.63,4.68-4.16.55-.55,1.07-1.18,1.56-1.77.49-.49.73-1.14.76-1.84,0-.24-.07-.55-.17-.83Zm-57.39,8.25c.07-.07.14-.1.21-.17,0,.07-.1.1-.21.17h0Zm1.11-1.11c-.07.1-.14.17-.24.28-.24.28-.52.52-.76.76-.03.03-.07.07-.14.1h0s-.1.03-.14.07c-.14.1-.31.17-.45.24-.31.1-.62.21-.94.28-.24.03-.49.03-.73,0h0c-.17-.03-.35-.07-.52-.14-.07-.03-.17-.1-.24-.14l-.07-.07s-.07-.07-.1-.1h0c-.03-.07-.07-.14-.1-.21h0c-.03-.07-.03-.17-.07-.28v-.49c.03-.21.1-.45.17-.66.07-.14.14-.31.24-.45,0,0,.03-.07.07-.14h0c.03-.07.1-.1.17-.17.1-.1.21-.21.31-.28.21-.14.38-.24.62-.35.35-.1.66-.21,1.01-.28.52-.03,1.01-.03,1.52,0,.49.07.97.21,1.42.35-.28.55-.59,1.07-.97,1.56-.03.03-.07.07-.07.1Zm-3.85-1.14s-.07.1-.1.14c.03-.07.07-.1.1-.14h0Z"/>
  <path class="cls-7" d="m81.66,123.4c-.03,1.07-.07,2.18-.1,3.26-.07,2.43-.14,4.82-.21,7.24-.07,2.7-.14,5.44-.24,8.14-.03,1.42-.07,2.81-.1,4.23-.1,3.78-.21,7.56-.31,11.33,0,.38-.03.76-.03,1.18-.03,1.87-.1,3.74-.17,5.61-.07,2.04-.1,4.05-.17,6.1-.03,1.52-.07,3.05-.14,4.57-.31,11.06-.62,22.15-.94,33.2-.03,1.42-1.18,2.56-2.6,2.6-1.42,0-2.6-1.18-2.6-2.6.17-6.24.35-12.44.52-18.68.17-5.61.31-11.26.49-16.88.03-1.87.1-3.71.17-5.58.07-2.81.17-5.58.24-8.39,0-.38.03-.76.03-1.18,0-.35,0-.69.03-1.04.14-5.44.31-10.85.45-16.29.07-2.15.14-4.26.17-6.41.07-2.43.14-4.89.21-7.31.03-1.07.07-2.15.1-3.22.03-1.42,1.18-2.56,2.6-2.6,1.46.14,2.6,1.28,2.6,2.7Z"/>
  <path class="cls-7" d="m224.27,124.13c-2.74,10.33-6,20.48-9.77,30.46-1.04,2.74-2.11,5.51-3.26,8.21l.28-.62c-.52,1.28-1.14,2.53-1.94,3.67-.07.07-.1.14-.17.21.28-.35.31-.42.14-.21-.1.1-.17.21-.28.31-.24.28-.52.52-.76.76-.07.07-.14.1-.21.17l.31-.24c-.03.1-.31.21-.38.24-.28.17-.55.31-.83.42l.62-.28c-.49.17-.97.31-1.46.42l.69-.1c-.49.07-1.01.07-1.49,0l.69.1c-.42-.07-.8-.17-1.18-.31l.62.28c-.21-.1-.38-.21-.59-.31-.1-.07-.38-.28,0,0,.38.31.03.03-.03-.07-.07-.07-.14-.14-.21-.21-.31-.31.35.55.14.17-.1-.17-.21-.38-.31-.55l.28.62c-.1-.31-.21-.59-.24-.94l.1.69c-.03-.38-.03-.8,0-1.18l-.1.69c.07-.45.17-.87.35-1.28l-.28.62c.1-.28.24-.55.42-.8.07-.14.17-.24.24-.38,0,0-.45.52-.21.28.07-.07.14-.14.17-.21.1-.1.21-.21.31-.31.35-.35-.52.35-.1.07.31-.21.62-.38.94-.52l-.62.28c.55-.24,1.14-.38,1.73-.45l-.69.1c.73-.07,1.49-.07,2.25.03l-.69-.1c.94.14,1.87.42,2.74.76l-.62-.28c1.87.8,3.54,1.98,5.16,3.15,1.59,1.14,3.29,2.18,5.03,3.08,3.78,1.87,7.83,3.08,11.99,3.64,12.16,1.49,24.26-3.29,32.09-12.75.49-.49.73-1.14.76-1.84,0-.69-.28-1.35-.76-1.84-.97-.87-2.74-1.11-3.67,0-.87,1.07-1.8,2.08-2.81,3.02-.45.45-.94.87-1.42,1.28-.28.24-.55.49-.87.69-.14.1-.55.38.1-.07-.14.1-.28.21-.45.35-2.18,1.59-4.54,2.95-7.04,4.02l.62-.28c-2.67,1.11-5.51,1.91-8.39,2.29l.69-.1c-2.95.38-5.96.38-8.94,0l.69.1c-2.95-.42-5.86-1.18-8.63-2.36l.62.28c-2.67-1.18-5.2-2.63-7.52-4.37-1.21-.9-2.5-1.7-3.85-2.43-1.56-.8-3.26-1.32-4.99-1.52-3.26-.38-6.62.9-8.39,3.71-1.66,2.6-1.63,6.31.69,8.53,2.39,2.29,6,2.25,8.8.83,2.7-1.39,4.33-4.23,5.48-6.9,2.56-6.07,4.85-12.23,6.97-18.47,2.11-6.17,4.02-12.37,5.72-18.65.21-.76.42-1.56.62-2.32.35-1.32-.45-2.88-1.8-3.19-1.32-.28-2.74.52-3.12,1.87h0Z"/>
  <path class="cls-7" d="m250.2,123.4l-.94,33.2-.94,33.03-.52,18.68c0,1.42,1.18,2.6,2.6,2.6,1.42-.03,2.56-1.18,2.6-2.6l.94-33.2.94-33.03.52-18.68c0-1.42-1.18-2.6-2.6-2.6-1.42.03-2.56,1.18-2.6,2.6Z"/>
  <path class="cls-3" d="m160.22,199.06h.8v-36.74h18.82v-.83h-18.82v-15.49h14.56c-.21-.28-.42-.55-.66-.8h-13.9v-10.26c-.28-.1-.52-.21-.8-.31v10.57h-15.84v-13.14c-.28,0-.55.03-.8.07v13.07h-12.62v-9.81c-.28.1-.55.24-.8.38v9.43h-10.61v.8h10.61v15.49h-10.61v.8h10.61v36.74h.8v-36.74c6.97,0,12.62,5.65,12.62,12.62h0v24.12h.8v-36.74h15.84v36.77h0Zm-29.25-37.57v-15.49h12.62v15.49h-12.62Zm13.41,0v-15.49h.31c8.56,0,15.49,6.93,15.49,15.49h-15.8Z"/>
  <path class="cls-7" d="m155.3,188.04c-1.01,4.54-3.47,8.63-6.93,11.68-.24.21-.52.45-.76.66-.66.07-1.28.1-1.94.17-.52.03-1.04.1-1.56.14h-.1l-.07-.55-.28-2.29c-2.08-3.4-2.5-7.52-1.14-11.23.9-2.46,2.56-4.64,4.19-6.83,2.25-2.98,4.44-5.93,4.51-9.6,1.11,1.42,2.01,2.98,2.74,4.61-.66.31-1.28.76-1.77,1.32-.14.17-.28.38-.17.55.07.17.28.21.49.21.42.03.87.1,1.32.14.35.03.69.07,1.04.1.42,1.39.69,2.81.87,4.23.17,2.25.03,4.51-.42,6.69Z"/>
  <path class="cls-5" d="m166.81,178.96c-2.04,1.49-3.22,3.64-4.16,6-.94.31-1.8.87-2.5,1.59-.14.17-.28.38-.17.55.07.17.28.21.49.21.42.03.87.1,1.32.14-.94,2.77-1.77,5.68-3.43,8.04-1.11,1.56-2.53,2.84-4.16,3.78-.45.24-.9.49-1.39.69-1.77.14-3.5.28-5.2.42-.66.07-1.28.1-1.94.17-.52.03-1.04.1-1.56.14v-.59c.1-5.09,1.98-9.95,5.27-13.83.17-.17.31-.35.49-.52,1.66-1.8,3.64-3.29,5.82-4.4,3.4-1.77,7.24-2.6,11.13-2.39Z"/>
  <path class="cls-5" d="m146.22,198.75l-.42,1.18-.21.59c-.52.03-1.04.1-1.56.14h-.1c-.59.07-1.14.1-1.73.17-.14-.17-.31-.35-.45-.52-7.52-9.11-6.27-22.6,2.81-30.19-.45,2.39.07,4.68.97,6.97-.1.03-.17.07-.28.1-.66.31-1.28.76-1.77,1.32-.14.17-.28.38-.17.55.07.17.28.21.49.21.42.03.87.1,1.32.14.35.03.69.07,1.04.1.17,0,.31.03.49.07.03.07.03.1.07.14.97,2.15,2.04,4.3,2.67,6.52.14.55.28,1.14.35,1.7.52,3.99-.76,7.94-3.5,10.81Z"/>
  <path class="cls-7" d="m181.12,148.49c-2.98-5.82-7.59-10.71-13.03-14.31s-11.71-5.79-18.23-6.38c-.87-.07-1.7-.14-2.56-.14-1.01,0-16.25,4.37-21.35,7.97-5.09,3.54-9.29,8.25-12.23,13.69-2.95,5.48-4.4,11.68-4.19,17.88.24,6.27,2.01,12.37,5.09,17.85,3.05,5.44,7.38,10.05,12.62,13.41,5.3,3.4,10.64,12.37,16.95,12.72,6.31.31,13.55-8.18,19.3-10.74,5.75-2.6,10.74-6.65,14.45-11.78,3.6-5.03,5.93-10.85,6.79-16.95.9-6.27.49-12.72-1.66-18.72-.55-1.56-1.21-3.05-1.94-4.51-.62-1.21-2.43-1.66-3.57-.94-1.21.76-1.63,2.32-.94,3.57.35.73.69,1.46,1.01,2.18l-.28-.62c1.18,2.84,1.98,5.82,2.39,8.84l-.1-.69c.42,3.29.42,6.65-.03,9.95l.1-.69c-.45,3.29-1.32,6.52-2.63,9.6l.28-.62c-.66,1.56-1.42,3.08-2.32,4.54-.45.73-.9,1.46-1.42,2.15-.21.31-.45.62-.66.9-.31.38.42-.52.1-.14-.07.07-.1.14-.17.21-.17.21-.31.38-.49.59-1.07,1.28-2.25,2.5-3.54,3.6-.31.28-.62.55-.97.8-.17.14-.31.28-.49.38,0,0,.55-.42.24-.17-.1.07-.21.14-.31.24-.66.49-1.35.97-2.08,1.42-1.63,1.04-3.33,1.91-5.13,2.67l.62-.28c-3.05,1.28-6.27,2.18-9.57,2.63l.69-.1c-3.29.45-6.62.45-9.91.03l.69.1c-2.98-.42-5.93-1.18-8.7-2.36l.62.28c-1.63-.69-3.15-1.49-4.64-2.43-.73-.45-1.46-.94-2.15-1.46-.1-.07-.21-.14-.31-.21-.31-.24.24.17.24.17-.17-.14-.35-.28-.52-.42-.35-.28-.66-.55-1.01-.83-1.32-1.14-2.53-2.39-3.64-3.71-.28-.35-.55-.66-.83-1.01-.1-.14-.31-.45.14.17-.07-.07-.14-.17-.17-.24-.14-.21-.31-.38-.45-.59-.52-.69-1.01-1.42-1.46-2.15-1.04-1.66-1.94-3.43-2.7-5.23l.28.62c-1.25-2.98-2.11-6.1-2.53-9.29l.1.69c-.38-2.95-.42-5.93,0-8.87l-.1.69c.38-2.84,1.18-5.65,2.29-8.32l-.28.62c.69-1.66,1.52-3.26,2.5-4.82.49-.76.97-1.52,1.52-2.25.14-.17.24-.35.38-.49.1-.14.42-.52-.1.14.03-.07.1-.14.14-.21.28-.38.59-.73.9-1.11,1.18-1.35,2.43-2.63,3.78-3.81.35-.31.69-.59,1.04-.87.17-.14.31-.24.49-.38.07-.03.14-.1.21-.14-.69.55-.21.14-.03.03.73-.55,1.46-1.07,2.22-1.56,1.7-1.07,3.47-2.01,5.34-2.81l-.62.28c2.7-1.14,14.59-3.78,16.77-3.5l-.69-.1c3.19.45,6.31,1.32,9.25,2.56l-.62-.28c1.49.62,2.95,1.39,4.37,2.18.69.42,1.39.83,2.08,1.32.31.21.62.45.94.66.17.1.31.24.45.35.07.07.17.14.24.21.35.28-.49-.38-.1-.1,1.25,1.01,2.46,2.08,3.6,3.22.55.55,1.07,1.14,1.59,1.73.28.31.52.62.76.94.14.17.55.73.03.03.14.17.24.35.38.52,1.11,1.49,2.08,3.05,2.91,4.68.62,1.21,2.43,1.66,3.57.94,1.28-.87,1.7-2.43,1.01-3.67Z"/>
  <path class="cls-7" d="m150.83,190.91c-.73.03-1.35-.52-1.35-1.25-.03-.38.14-.76.42-1.01.03-.14.07-.24.1-.35,0-.03-.03-.07-.03-.07-1.21-2.88-8.91,5.13-9.22,7.83-.14,1.18-.07,2.39.17,3.57-2.5-5.44-3.78-11.33-3.81-17.33,0-1.49.07-3.02.24-4.51.14-1.21.35-2.43.59-3.64,1.35-6.55,4.19-12.68,8.39-17.88,2.39.14,4.47-.24,4.68-4.85.03-.83.66-1.52.76-2.36-.24.03-.45.03-.69.07h-.24c-.73.03-1.32-.52-1.35-1.25,0-.31.1-.62.28-.87.1-.1.21-.24.31-.35.14-.17.31-.38.45-.55,0-.03.03-.03.03-.07.17-.21.35-.42.52-.62-.31-.49-.73-.9-1.25-1.18-1.73-1.01-4.09-.31-5.34,1.25s-1.49,3.74-1.04,5.68c.42,1.66,1.14,3.22,2.08,4.64-.1.1-.17.24-.28.35-1.7,2.18-3.19,4.54-4.44,7.04.35-2.74-3.95-12.68-5.61-14.8-2.01-2.53-6.1-1.42-6.45,1.77v.1c.24.14.49.28.73.45.83.55,1.04,1.66.49,2.46-.28.42-.73.69-1.21.76h-.03c-3.33,4.71,7.31,17.05,9.95,14.28-1.25,3.54-2.04,7.24-2.32,10.99-.17,2.22-.17,4.44.03,6.65v-.07c-.59-4.82-10.71-11.96-13.69-11.37-1.7.35-3.4.28-3.12,1.98v.07c.45.17.9.42,1.35.66.24.14.49.28.73.45.83.55,1.04,1.66.49,2.46-.28.42-.73.69-1.21.76h-.1c-1.49,5.2,9.67,13.55,16.46,10.88h0c.66,2.91,1.66,5.79,2.91,8.49h10.4c.03-.1.07-.24.1-.35-.97.07-1.94,0-2.88-.17.76-.94,1.56-1.91,2.32-2.84,0-.03.03-.03.03-.07.38-.49.8-.97,1.18-1.46h0c0-1.49-.17-2.98-.52-4.4h0Zm-11.92-23.43h0Zm-2.29,20.76l-.1-.21v-.59c.03.28.07.55.1.8h0Z"/>
  <circle class="cls-7" cx="33.93" cy="165.44" r="3.81"/>
  <circle class="cls-7" cx="79.68" cy="207.03" r="3.81"/>
  <circle class="cls-7" cx="253.31" cy="207.03" r="3.81"/>
  <circle class="cls-7" cx="262.67" cy="158.51" r="3.81"/>
  <circle class="cls-7" cx="251.58" cy="123.16" r="3.81"/>
  <path class="cls-7" d="m92.5,158.51c0,2.08-1.7,3.78-3.81,3.78s-3.78-1.7-3.78-3.81,1.7-3.78,3.81-3.78c1.8,0,3.36,1.28,3.71,3.05.07.28.1.52.07.76Z"/>
  <circle class="cls-7" cx="168.75" cy="134.25" r="3.81"/>
  <path class="cls-7" d="m130.97,134.25c0,2.08-1.7,3.78-3.81,3.78s-3.78-1.7-3.78-3.81,1.7-3.78,3.81-3.78c1.8,0,3.36,1.28,3.71,3.05.07.28.1.52.07.76Z"/>
  <path class="cls-7" d="m81.76,123.16c0,2.08-1.7,3.78-3.81,3.78s-3.78-1.7-3.78-3.81,1.7-3.78,3.81-3.78c1.8,0,3.36,1.28,3.71,3.05.07.28.1.52.07.76Z"/>
  <circle class="cls-7" cx="208.61" cy="166.83" r="3.81"/>
  <circle class="cls-7" cx="148.65" cy="130.44" r="5.55"/>
  <path class="cls-8" d="m298.61,211.15l-297.26.1c-.24,0-.42-.17-.42-.42s.17-.42.42-.42h0l297.29-.1c.24,0,.42.17.42.42-.03.21-.21.42-.45.42Z"/>
  <g>
    <path class="cls-7" d="m103.28,222.9v3.88h2.11v2.84h-2.11v2.56l1.98-.45.35,2.84-2.32.59v4.54c0,1.39-.24,2.15-1.04,2.56-.8.45-1.91.55-3.43.55-.07-.8-.45-2.01-.83-2.77.73.03,1.59.03,1.87.03.31,0,.42-.1.42-.42v-3.81l-1.94.45-.76-2.95,2.67-.52v-3.22h-2.43v-2.84h2.43v-3.88h3.05Zm13.48,9.08c-.9,2.01-2.25,3.99-3.85,5.72.45.76.94,1.21,1.56,1.32.45.07.69-.9.8-3.15.59.69,1.98,1.52,2.56,1.8-.62,4.23-1.94,5.16-3.19,5.03-1.8-.21-3.19-1.14-4.16-2.74-1.11.9-2.29,1.66-3.54,2.25-.55-.8-1.59-1.77-2.46-2.36,1.7-.66,3.33-1.66,4.75-2.84-.52-1.66-.83-3.71-1.07-6.03l-2.25.24-.31-2.95,2.36-.21c-.1-1.59-.17-3.29-.21-5.09h3.15c0,1.7.03,3.29.14,4.78l2.88-.24c-.62-.87-1.77-2.18-2.56-3.12l2.36-1.49c.87.94,2.18,2.25,2.84,3.08l-2.22,1.49,3.02-.28.31,2.84-6.34.62c.14,1.39.31,2.63.55,3.71,1.01-1.25,1.84-2.63,2.46-3.99l2.43,1.59Z"/>
    <path class="cls-7" d="m138.15,224.25v3.15h-6.52c-.35.59-.69,1.18-1.07,1.77v2.01l1.56-1.32c2.15,1.66,5.41,4.16,6.93,5.86l-2.63,2.36c-1.18-1.49-3.74-3.74-5.86-5.51v10.36h-3.4v-9.57c-1.8,1.87-3.88,3.5-6.2,4.68-.49-.83-1.46-2.11-2.11-2.81,3.71-1.7,6.79-4.75,8.7-7.83h-7.97v-3.15h18.58Z"/>
    <path class="cls-7" d="m144.8,238.88v-2.46h-3.71v-2.63h3.71v-1.66h2.91v1.66h3.57v2.63h-3.57v1.98l3.81-.62.17,2.63c-3.71.69-7.73,1.39-10.64,1.91l-.66-2.81c1.21-.14,2.74-.35,4.4-.62Zm-3.88-9.43c.35-.1.69-.42,1.01-.9.17-.28.59-1.01.97-1.87h-2.29v-2.63h11.13v2.63h-2.6c1.01,1.32,2.08,2.95,2.53,4.12l-2.36,1.49c-.07-.24-.21-.55-.35-.87-5.44.42-6.38.45-7.07.76-.17-.59-.66-1.98-.97-2.74Zm7.14-2.77h-1.87c-.45.83-.97,1.7-1.49,2.46l2.95-.14c-.35-.52-.69-1.01-1.01-1.49l1.42-.83Zm7.14-1.73v12.86h-2.84v-12.86h2.84Zm4.12-1.91v16.36c0,1.49-.28,2.29-1.18,2.74-.9.45-2.15.55-3.88.55-.14-.8-.62-2.11-1.04-2.91,1.07.03,2.18.03,2.56.03s.52-.14.52-.49v-16.32h3.02v.03Z"/>
    <path class="cls-7" d="m180.36,223.63v19.37h-3.08v-.69h-12.41v.69h-2.95v-19.37h18.44Zm-11.54,2.74h-3.95v3.36c1.49-.83,2.98-2.08,3.95-3.36Zm-3.95,6.55c1.25-.24,2.5-.62,3.67-1.01-.35-.28-.73-.55-1.04-.83l-.94.66c-.38-.42-1.11-1.11-1.7-1.59v2.77Zm2.6,3.29c2.91.31,6.41,1.04,8.66,1.8l-1.01,1.59h2.15v-5.93c-.42.52-.8,1.11-1.04,1.56-1.73-.38-3.43-.97-5.03-1.7l-1.04.49c1.59.35,3.29.9,4.37,1.35l-1.25,1.87c-1.28-.62-3.6-1.39-5.41-1.77l.55-.8c-.94.35-1.87.62-2.84.83-.14-.45-.45-1.04-.8-1.59v5.72h8.32c-2.08-.62-4.82-1.18-7.1-1.42l1.46-2.01Zm5.13-6.27h-2.95c.45.31.9.59,1.42.87.55-.28,1.07-.59,1.52-.87Zm-1.07-3.05l-.62.83h4.19l.42-.1,1.7,1.01c-.83,1.28-2.01,2.39-3.4,3.33,1.11.38,2.25.69,3.43.9v-6.45h-7.17l1.46.49Z"/>
    <path class="cls-7" d="m188.12,223.28v4.75h4.75v-5.13h3.33v5.13h4.47v3.19h-12.55c-.03.76-.03,1.52-.07,2.29h10.57v9.43h-3.4v-6.2h-7.62c-.49,2.32-1.42,4.54-3.19,6.38-.52-.8-1.66-2.01-2.43-2.56,2.56-2.74,2.88-6.65,2.88-10.12v-7.17h3.26v.03Z"/>
  </g>
  <g>
    <path class="cls-2" d="m70.95,263.42c.17.07.35.21.66.38.52.28,1.25.35,2.15.35.97,0,2.29-.07,3.12-.14-.07.17-.17.45-.17.62-.66.03-2.11.1-2.95.1-.97,0-1.7-.07-2.25-.38-.35-.21-.59-.42-.8-.42-.28,0-.69.42-1.11.9l-.42-.55c.42-.38.83-.73,1.21-.83v-2.5h-1.11v-.52h1.66v2.98Zm-1.11-5.79c.45.38.97.9,1.21,1.28l-.45.31c-.24-.38-.73-.94-1.18-1.32l.42-.28Zm2.15,1.98c.66.45,1.39.97,2.08,1.49.45-.55.8-1.21,1.04-2.01h-3.74v-.52h2.53c-.1-.31-.38-.83-.62-1.18l.52-.17c.24.38.52.87.62,1.21l-.45.17h2.77v.52h-1.07c-.28.94-.66,1.7-1.18,2.32.76.59,1.46,1.14,1.91,1.59l-.45.42c-.45-.45-1.11-1.04-1.84-1.63-.66.69-1.49,1.25-2.5,1.63-.07-.14-.21-.38-.35-.49,1.01-.35,1.8-.83,2.43-1.49-.69-.55-1.46-1.11-2.11-1.56l.42-.31Z"/>
    <path class="cls-2" d="m85.09,257.84v.55h-1.04v5.61c0,.42-.1.62-.42.73s-.9.1-1.7.1c-.03-.17-.14-.42-.24-.59.69.03,1.35.03,1.56,0,.17,0,.24-.07.24-.24v-5.61h-5.79v-.55h7.38Zm-3.15,1.84v3.08h-2.84v.66h-.52v-3.74h3.36Zm-2.84,2.56h2.29v-2.01h-2.29v2.01Z"/>
    <path class="cls-2" d="m86.02,259.05c.14-.03.24-.14.38-.31.14-.17.62-.83.9-1.49l.59.17c-.31.55-.69,1.14-1.04,1.59l1.94-.1c-.21-.35-.42-.69-.62-.97l.45-.17c.42.55.9,1.32,1.07,1.8l-.49.21c-.03-.14-.1-.28-.21-.45-2.32.17-2.6.21-2.77.24-.03-.1-.14-.38-.21-.52Zm3.29,1.14v3.99c0,.31-.07.45-.28.55s-.59.1-1.11.1c-.03-.14-.1-.38-.17-.52h.87c.1,0,.14-.03.14-.14v-1.04h-1.87v1.7h-.52v-4.64h2.95Zm-2.43.49v.76h1.87v-.76h-1.87Zm0,2.01h1.87v-.8h-1.87v.8Zm6.17-4.37c-.66.31-1.59.62-2.39.83v.9c0,.24.07.31.45.31h1.39c.35,0,.38-.14.42-1.01.1.1.35.17.49.21-.07,1.01-.24,1.25-.87,1.25h-1.49c-.76,0-.97-.17-.97-.83v-2.81h.55v1.46c.73-.24,1.52-.55,2.01-.8l.42.49Zm.1,3.71c-.62.38-1.63.69-2.5.94v1.04c0,.28.07.31.49.31h1.42c.35,0,.42-.17.45-1.11.14.1.35.17.49.21-.07,1.11-.24,1.39-.9,1.39h-1.49c-.76,0-.97-.17-.97-.83v-2.84h.55v1.35c.8-.24,1.63-.59,2.11-.9l.35.45Z"/>
    <path class="cls-2" d="m96.35,261.79c-.07.28-.14.55-.21.83.31.8.87,1.21,1.63,1.39v-2.6h-3.47v-.49h7.35v.49h-3.33v.97h2.77v.49h-2.77v1.21c.31.03.66.03,1.04.03h2.46c-.07.14-.17.38-.21.55h-2.25c-1.7,0-2.81-.28-3.47-1.46-.31.69-.76,1.25-1.32,1.63-.07-.1-.31-.31-.42-.38.9-.59,1.42-1.52,1.66-2.77l.52.1Zm4.4-4.19v2.74h-5.55v-2.74h5.55Zm-4.99,1.18h4.44v-.73h-4.44v.73Zm0,1.11h4.44v-.73h-4.44v.73Z"/>
    <path class="cls-2" d="m109.8,257.59v7.28h-.55v-.42h-5.86v.42h-.52v-7.28h6.93Zm-.55,6.38v-5.86h-5.86v5.86h5.86Zm-2.56-5.51c0,.49-.03.97-.1,1.42h2.15v.52h-2.22l-.07.42c.87.76,1.84,1.77,2.29,2.46l-.42.35c-.42-.62-1.25-1.52-2.01-2.29-.31,1.01-.9,1.8-2.04,2.36-.07-.14-.24-.35-.35-.45,1.35-.59,1.84-1.59,2.08-2.84h-2.08v-.52h2.15c.03-.45.07-.9.1-1.42h.52Z"/>
    <path class="cls-2" d="m114.51,257.25v.97c0,.31,0,.66-.03,1.04h3.5v.28c-.14,3.36-.24,4.54-.59,4.92-.17.21-.38.28-.66.31-.28.03-.83,0-1.32,0,0-.17-.1-.42-.21-.59.59.07,1.11.07,1.32.07.17,0,.28,0,.38-.14.24-.24.38-1.39.52-4.3h-2.95c-.21,1.63-.87,3.5-3.05,4.96-.1-.14-.31-.31-.42-.42,2.04-1.32,2.7-3.05,2.91-4.54h-2.67v-.55h2.74c.03-.38.03-.73.03-1.04v-.97h.49Zm-2.18.24c.35.38.73.87.9,1.21l-.49.24c-.17-.35-.55-.87-.9-1.25l.49-.21Zm2.77,3.4c.45.49.97,1.18,1.18,1.63l-.49.28c-.21-.45-.73-1.14-1.14-1.66l.45-.24Z"/>
    <path class="cls-2" d="m121.06,259.85v3.78l.8-.55c.03.14.1.38.17.45-1.28.94-1.49,1.07-1.59,1.25-.07-.1-.21-.31-.31-.42.14-.14.42-.42.42-.8v-3.15h-1.35v-.55h1.87Zm-.87-2.5c.42.42.94,1.01,1.21,1.35l-.42.38c-.24-.38-.76-.97-1.18-1.42l.38-.31Zm6.38,3.92c-.42.62-.94,1.25-1.56,1.77.59.45,1.28,1.01,1.63,1.39l-.42.38c-.35-.38-1.04-.94-1.63-1.42-.83.62-1.77,1.14-2.81,1.52-.07-.14-.24-.35-.35-.45,1.98-.69,3.67-1.94,4.51-3.4l.62.21Zm-2.32-4.05c.21.35.45.83.52,1.14h-.03,1.91v.52h-2.36c-.31.49-.8,1.14-1.18,1.59l1.66-.1c.21-.24.35-.49.49-.76l.55.17c-.76,1.32-2.11,2.53-3.67,3.26-.07-.14-.21-.35-.31-.45.94-.42,1.84-1.04,2.5-1.73-1.77.1-2.01.17-2.18.21-.03-.14-.14-.42-.21-.55.17-.03.42-.1.55-.24.21-.21.8-.97,1.11-1.46h-1.84v-.52h2.36c-.1-.31-.28-.69-.45-1.04l.59-.03Z"/>
    <path class="cls-2" d="m135.03,258.74v.55h-1.32c-.49,1.35-1.14,2.43-2.01,3.29.94.8,2.08,1.42,3.43,1.73-.14.14-.28.35-.38.52-1.39-.38-2.53-1.01-3.47-1.87-.94.83-2.11,1.46-3.5,1.91-.07-.14-.24-.42-.35-.52,1.39-.42,2.53-.97,3.43-1.77-.87-.9-1.56-2.01-2.04-3.29h-1.28v-.55h7.49Zm-1.94.52h-3.67c.45,1.11,1.07,2.08,1.87,2.91.76-.76,1.39-1.73,1.8-2.91Zm-1.87-2.04c.24.38.55.94.66,1.28l-.62.21c-.1-.35-.38-.9-.62-1.32l.59-.17Z"/>
    <path class="cls-2" d="m137.59,257.25v1.8h1.07v.52h-1.07v.35c.21.28.94,1.25,1.07,1.49l-.35.42c-.14-.28-.45-.83-.73-1.25v4.26h-.52v-4.09c-.28.97-.69,1.94-1.11,2.53-.07-.14-.21-.38-.31-.49.52-.73,1.04-2.04,1.32-3.22h-1.14v-.52h1.25v-1.8h.52Zm4.89,6.48v-1.21h-3.67v-.52h3.67v-1.14h-3.78v-.55h1.94v-3.05h.55v3.05h1.87v4.47h-.55v-.55h-3.99v-.49h3.95Zm-3.26-5.93c.28.62.62,1.39.8,1.87l-.49.21c-.14-.52-.49-1.32-.76-1.91l.45-.17Zm3.88.14c-.28.66-.66,1.49-.94,2.01l-.45-.14c.28-.52.66-1.39.83-2.01l.55.14Z"/>
    <path class="cls-2" d="m144.07,260.16c.14-.03.28-.24.45-.52s.73-1.39,1.04-2.39l.55.21c-.35.94-.83,1.87-1.28,2.63l.97-.1c.17-.31.35-.62.49-.97l.45.24c-.49.94-1.07,1.91-1.7,2.67l1.46-.31c0,.14,0,.35.03.45-1.84.42-2.08.52-2.25.62-.03-.1-.1-.38-.17-.52.17-.03.35-.24.59-.55.14-.17.45-.62.8-1.18-.94.14-1.14.17-1.25.24,0-.1-.1-.38-.17-.52Zm2.46,2.74l.1.45c-.83.35-1.7.69-2.39.97l-.14-.52c.59-.21,1.52-.55,2.43-.9Zm2.77-5.68c.17.28.38.69.45.97h1.63v1.91h-3.67c0,1.35-.14,3.33-.9,4.68-.1-.1-.31-.24-.42-.31.76-1.35.83-3.19.83-4.44v-1.8h1.98c-.1-.24-.24-.55-.38-.8l.49-.21Zm-1.59,2.39h3.15v-.97h-3.15v.97Zm3.29,1.21h.45v3.5c0,.21-.03.35-.17.42s-.35.07-.62.07c0-.14-.07-.31-.14-.42h.42c.07,0,.07-.03.07-.1v-1.28h-.66v1.56h-.38v-1.56h-.62v1.59h-.42v-1.59h-.73v1.8h-.45v-3.99h3.26Zm-2.81.45v1.28h.73v-1.28h-.73Zm1.11,1.28h.62v-1.28h-.62v1.28Zm1.04,0h.66v-1.28h-.66v1.28Z"/>
    <path class="cls-2" d="m152.6,260.92c.14-.03.24-.31.38-.66.07-.21.28-.8.45-1.46h-.94v-.52h1.07c.07-.31.14-.66.17-1.01l.55.1c-.07.28-.1.59-.21.87h1.42v.52h-1.56c-.21.73-.42,1.42-.66,2.01h.87v-1.28h.52v1.28h.8v.52h-.8v1.14l.97-.17.03.49-1.01.21v1.87h-.55v-1.77l-1.59.31-.14-.55c.45-.07,1.04-.17,1.7-.31v-1.21h-.76c-.28,0-.52.03-.59.1,0-.1-.1-.35-.14-.49Zm3.57,2.67v-3.33h-.59v-.49h4.4v.49h-.59v3.08l.62-.03v.49l-.62.03v1.04h-.52v-1.01l-3.43.28-.1-.52.83-.03Zm3.29-6.07v1.77h-3.36v-1.77h3.36Zm-2.84,1.32h2.32v-.9h-2.32v.9Zm.07,1.42v.76h2.22v-.76h-2.22Zm0,1.21v.76h2.22v-.76h-2.22Zm0,1.18v.87l2.22-.17v-.73h-2.22v.03Z"/>
    <path class="cls-2" d="m167.85,257.8c-.62.8-1.32,1.49-2.11,2.15h2.5v.52h-3.15c-.45.31-.94.62-1.42.9h3.54v3.47h-.59v-.24h-3.47v.28h-.55v-2.91c-.52.24-1.04.49-1.56.69-.07-.14-.24-.35-.38-.49,1.25-.42,2.43-1.01,3.5-1.7h-3.33v-.52h2.91v-1.14h-2.18v-.49h2.18v-1.07h.55v1.07h2.11v.35c.35-.35.69-.73.97-1.11l.49.24Zm-1.21,4.92v-.87h-3.47v.87h3.47Zm-3.47,1.39h3.47v-.94h-3.47v.94Zm1.73-4.16c.49-.35.94-.73,1.35-1.14h-1.98v1.14h.62Z"/>
    <path class="cls-2" d="m169.3,259.6c.52.24,1.21.62,1.56.87l-.31.45c-.35-.24-1.04-.62-1.52-.9l.28-.42Zm1.46,2.08l.42.35c-.42.87-.97,1.94-1.42,2.7l-.45-.35c.38-.66,1.01-1.73,1.46-2.7Zm-1.04-4.33c.49.24,1.18.66,1.52.9l-.31.45c-.35-.24-1.01-.69-1.49-.97l.28-.38Zm5.86,3.57l.1-.03.38.17c-.38,1.01-.97,1.77-1.73,2.36.69.42,1.49.76,2.43.9-.14.14-.28.35-.38.52-.97-.21-1.84-.55-2.53-1.07-.8.52-1.7.83-2.63,1.07-.07-.14-.17-.38-.28-.52.87-.17,1.73-.45,2.46-.9-.62-.52-1.11-1.18-1.46-1.94l.1-.03h-.49v-.52h4.02Zm-.35-3.36v1.87c0,.24.03.35.17.35h.76c.14,0,.31,0,.42-.03,0,.17.03.42.03.55-.1.03-.28.03-.49.03h-.8c-.55,0-.69-.24-.69-.87v-1.32h-1.7v.45c0,.8-.28,1.7-1.49,2.29-.07-.14-.28-.35-.38-.42,1.11-.52,1.32-1.25,1.32-1.87v-.94h2.84v-.1Zm-2.74,3.92c.31.62.8,1.21,1.35,1.66.59-.45,1.11-1.01,1.42-1.66h-2.77Z"/>
    <path class="cls-2" d="m180.88,257.39c-.1.31-.21.62-.35.97h4.3v.52h-4.51c-.17.35-.35.69-.55,1.04h4.09v4.26c0,.35-.07.52-.35.62-.24.07-.73.07-1.46.07-.03-.14-.1-.38-.21-.55.59.03,1.07,0,1.25,0,.14,0,.21-.07.21-.17v-.94h-3.57v1.66h-.55v-4.12c-.42.52-.9,1.01-1.46,1.39-.07-.14-.24-.31-.35-.42,1.01-.69,1.8-1.73,2.32-2.84h-2.15v-.52h2.39c.14-.35.28-.73.38-1.07l.55.1Zm2.43,3.92v-.9h-3.57v.9h3.57Zm-3.6,1.42h3.57v-.94h-3.57v.94Z"/>
    <path class="cls-2" d="m189.51,257.39v2.6h3.15v.55h-3.15v3.4h3.71v.55h-7.45v-.55h3.15v-6.55h.59Z"/>
    <path class="cls-2" d="m196.44,257.46c-.24.62-.55,1.25-.87,1.8v5.61h-.55v-4.75c-.28.42-.59.76-.87,1.07-.07-.14-.21-.42-.31-.55.83-.8,1.63-2.08,2.08-3.36l.52.17Zm1.56,5.37c.28.17.55.35.83.52.45-.49.94-1.04,1.32-1.46h-3.05c.17-.42.35-.97.52-1.56h-1.56v-.52h1.7l.31-1.04h-1.52v-.52h1.66l.24-.94.55.07-.21.87h2.43v.52h-2.56l-.31,1.04h3.22v.52h-3.4l-.31,1.04h2.7l.1-.03.38.24c-.49.59-1.21,1.39-1.84,2.08.38.28.69.55.94.8l-.42.42c-.45-.49-1.39-1.21-2.15-1.7l.42-.35Z"/>
    <path class="cls-2" d="m204.24,259.85v3.78l.8-.55c.03.14.1.38.17.45-1.28.94-1.49,1.07-1.59,1.25-.07-.1-.21-.31-.31-.42.14-.14.42-.42.42-.8v-3.15h-1.35v-.55h1.87Zm-.87-2.5c.42.42.94,1.01,1.21,1.35l-.42.38c-.24-.38-.76-.97-1.18-1.42l.38-.31Zm6.38,3.92c-.42.62-.94,1.25-1.56,1.77.59.45,1.28,1.01,1.63,1.39l-.42.38c-.35-.38-1.04-.94-1.63-1.42-.83.62-1.77,1.14-2.81,1.52-.07-.14-.24-.35-.35-.45,1.98-.69,3.67-1.94,4.51-3.4l.62.21Zm-2.32-4.05c.21.35.45.83.52,1.14h-.03,1.91v.52h-2.36c-.31.49-.8,1.14-1.18,1.59l1.66-.1c.21-.24.35-.49.49-.76l.55.17c-.76,1.32-2.11,2.53-3.67,3.26-.07-.14-.21-.35-.31-.45.94-.42,1.84-1.04,2.5-1.73-1.77.1-2.01.17-2.18.21-.03-.14-.14-.42-.21-.55.17-.03.42-.1.55-.24.21-.21.8-.97,1.11-1.46h-1.84v-.52h2.36c-.1-.31-.28-.69-.45-1.04l.59-.03Z"/>
    <path class="cls-2" d="m217.89,257.63v7.24h-.55v-.35h-5.79v.35h-.55v-7.24h6.9Zm-.55,6.38v-5.89h-5.79v5.89h5.79Zm-3.12-5.51c-.1.17-.21.35-.35.49h2.22l.1-.03.31.21c-.35.55-.87,1.04-1.49,1.46.66.31,1.42.55,2.15.69-.1.1-.24.28-.31.42-.8-.17-1.59-.45-2.29-.83-.8.42-1.7.76-2.53.94-.03-.14-.17-.35-.28-.45.76-.14,1.59-.42,2.32-.76-.38-.24-.69-.49-.97-.8-.28.24-.55.45-.8.62-.07-.1-.28-.24-.38-.35.69-.42,1.42-1.07,1.87-1.77l.42.17Zm-1.35,4.05c1.11.14,2.56.45,3.36.73l-.24.42c-.8-.28-2.22-.62-3.36-.76l.24-.38Zm1.63-2.18c.49-.28.9-.59,1.21-.94h-2.22l-.07.07c.28.31.66.62,1.07.87Zm-.83,1.18c.66.14,1.49.42,1.94.62l-.24.38c-.45-.21-1.28-.52-1.98-.66l.28-.35Z"/>
    <path class="cls-2" d="m221.36,257.46c-.24.62-.52,1.28-.87,1.87v5.51h-.52v-4.64c-.24.35-.49.69-.76.97-.07-.14-.21-.42-.31-.55.8-.83,1.52-2.08,1.94-3.36l.52.21Zm1.87-.1c-.07.17-.17.31-.28.49h1.56l.1-.03.31.24c-.17.31-.42.66-.66.97h1.8v1.77h-2.5c-.07.07-.14.17-.21.24.38.31.66.69.83,1.07.52-.28,1.18-.66,1.56-.94l.38.35c-.28.17-.62.38-.94.55.28.83.8,1.56,1.46,1.91-.14.1-.28.28-.38.42-.69-.42-1.21-1.21-1.52-2.11l-.42.21c.28.87.17,1.8-.21,2.11-.21.21-.42.28-.69.28h-.52c0-.14-.07-.35-.14-.49.21.03.42.03.55.03.17,0,.31,0,.42-.17.21-.21.28-.66.21-1.25-.73.66-1.8,1.25-2.7,1.56-.07-.14-.21-.31-.31-.42,1.04-.31,2.29-.97,2.95-1.63-.07-.17-.14-.35-.21-.52-.62.52-1.59,1.07-2.32,1.35-.07-.1-.21-.28-.31-.38.83-.24,1.87-.8,2.46-1.28-.1-.14-.24-.28-.38-.42-.42.31-.97.62-1.7.87-.07-.1-.21-.24-.31-.35.9-.28,1.52-.66,1.91-1.01h-1.32v-1.28c-.14.14-.31.28-.49.42-.07-.1-.24-.28-.38-.35.94-.66,1.59-1.56,1.94-2.25l.45.03Zm-1.18,1.66h1.59c.17-.21.38-.45.52-.73h-1.56c-.14.24-.35.49-.55.73Zm.03,1.32h1.21c.21-.31.31-.62.35-.9h-1.56v.9Zm1.77,0h1.7v-.9h-1.46c0,.28-.07.59-.24.9Z"/>
    <path class="cls-2" d="m229.89,263.45c0,.69-.55,1.25-1.25,1.25s-1.25-.55-1.25-1.25.55-1.25,1.25-1.25c.69,0,1.25.55,1.25,1.25Zm-.38,0c0-.45-.38-.87-.87-.87-.45,0-.87.38-.87.87s.38.87.87.87.87-.38.87-.87Z"/>
  </g>
  <g>
    <path class="cls-7" d="m142.31,281.96h.94v1.84h1.73v-1.84h.9v4.64h-.9v-2.01h-1.73v2.01h-.94v-4.64Z"/>
    <path class="cls-7" d="m146.78,284.32c0-1.52.97-2.43,2.15-2.43.59,0,1.04.28,1.35.59l-.49.59c-.24-.21-.52-.38-.87-.38-.69,0-1.21.59-1.21,1.59s.49,1.59,1.21,1.59c.42,0,.69-.17.94-.45l.49.59c-.38.45-.87.69-1.49.69-1.11-.03-2.08-.87-2.08-2.39Z"/>
    <path class="cls-7" d="m151.94,282.76h-1.28v-.76h3.54v.76h-1.32v3.85h-.94v-3.85Z"/>
    <path class="cls-7" d="m155.82,282.76h-1.28v-.76h3.54v.76h-1.32v3.85h-.94v-3.85Z"/>
  </g>
</svg>